<?xml version="1.0" encoding="utf-8"?>
<svg version="1.1" id="レイヤー_1" x="0px" y="0px" viewBox="0 0 711 369" style="enable-background:new 0 0 711 331;" xmlns="http://www.w3.org/2000/svg">
  <style type="text/css">
	.st0{fill:#FFFFFF;}
	.st1{font-family:'AndaleMono';}
	.st2{font-size:12px;}
	.st3{fill:none;stroke:#000000;stroke-dasharray:3,3;}
	.st4{fill:none;stroke:#000000;}
	.st5{fill:#FFFFFF;stroke:#000000;}
	.st6{font-size:13px;}
	.st7{font-family:'Helvetica';}
	.st8{fill:none;stroke:#000000;stroke-miterlimit:10;}
	.st9{stroke:#000000;stroke-miterlimit:10;}
	.st10{fill:none;stroke:#000000;stroke-miterlimit:10;stroke-dasharray:3,3;}
	.st11{fill:none;}
	.st12{fill:none;stroke:#000000;stroke-linecap:square;stroke-miterlimit:10;}
	.st13{font-family:'Helvetica-Oblique';}
</style>
  <g>
    <rect x="512" y="200.5" pointer-events="all" class="st0" width="80" height="30" style="stroke-width: 1.5px;"/>
    <g transform="translate(-0.5 -0.5)">
      <text transform="matrix(1 0 0 1 523.6953 219.5)" class="st1 st2" style="stroke-width: 1.5px; white-space: pre;">result 3</text>
    </g>
    <rect x="310.5" y="200.5" pointer-events="all" class="st0" width="80" height="30" style="stroke-width: 1.5px;"/>
    <g transform="translate(-0.5 -0.5)">
      <text transform="matrix(1 0 0 1 321.6953 219.5)" class="st1 st2" style="stroke-width: 1.5px; white-space: pre;">result 2</text>
    </g>
    <rect x="512" y="200.5" pointer-events="all" class="st3" width="87" height="110" style="stroke-width: 1.5px;"/>
    <rect x="310.5" y="200.5" pointer-events="all" class="st3" width="87" height="110" style="stroke-width: 1.5px;"/>
    <polygon pointer-events="all" class="st3" points="75.5,0.5 625.5,0.5 630.5,330.5 80.5,330.5 &#9;" style="stroke-width: 1.5px;"/>
    <rect x="90.5" y="80.5" pointer-events="all" class="st4" width="130" height="240" style="stroke-width: 1.5px;"/>
    <rect x="110.5" y="200.5" pointer-events="all" class="st0" width="80" height="30" style="stroke-width: 1.5px;"/>
    <g transform="translate(-0.5 -0.5)">
      <text transform="matrix(1 0 0 1 121.6953 219.5)" class="st1 st2" style="stroke-width: 1.5px; white-space: pre;">result 1</text>
    </g>
    <rect x="290.5" y="80.5" pointer-events="all" class="st4" width="130" height="240" style="stroke-width: 1.5px;"/>
    <rect x="140.5" y="270.5" pointer-events="all" class="st5" width="30" height="30" style="stroke-width: 1.5px;"/>
    <g transform="translate(-0.5 -0.5)">
      <text transform="matrix(1 0 0 1 147.6987 289.5)" class="st1 st6" style="stroke-width: 1.5px; white-space: pre;">s1</text>
    </g>
    <rect x="90.5" y="10.5" pointer-events="all" class="st4" width="130" height="70" style="stroke-width: 1.5px;"/>
    <rect x="115.5" y="30.5" pointer-events="all" class="st0" width="80" height="30" style="stroke-width: 1.5px;"/>
    <g transform="translate(-0.5 -0.5)">
      <text transform="matrix(1 0 0 1 127.3196 49.5)" class="st7 st6" style="stroke-width: 1.5px; white-space: pre;">process 1</text>
    </g>
    <rect x="290.5" y="10.5" pointer-events="all" class="st4" width="130" height="70" style="stroke-width: 1.5px;"/>
    <rect x="316" y="30.5" pointer-events="all" class="st0" width="80" height="30" style="stroke-width: 1.5px;"/>
    <g transform="translate(-0.5 -0.5)">
      <text transform="matrix(1 0 0 1 328.3196 49.5)" class="st7 st6" style="stroke-width: 1.5px; white-space: pre;">process 2</text>
    </g>
    <rect x="110.5" y="145.5" pointer-events="all" class="st5" width="62" height="30" style="stroke-width: 1.5px;"/>
    <g transform="translate(-0.5 -0.5)">
      <text transform="matrix(1 0 0 1 121.9968 164.5)" class="st1 st6" style="stroke-width: 1.5px; white-space: pre;">state</text>
    </g>
    <rect x="140.5" y="230.5" pointer-events="all" class="st5" width="30" height="30" style="stroke-width: 1.5px;"/>
    <g transform="translate(-0.5 -0.5)">
      <text transform="matrix(1 0 0 1 147.6987 249.5)" class="st1 st6" style="stroke-width: 1.5px; white-space: pre;">v1</text>
    </g>
    <rect x="0.5" y="105.5" pointer-events="all" class="st5" width="60" height="30" style="stroke-width: 1.5px;"/>
    <g transform="translate(-0.5 -0.5)">
      <text transform="matrix(1 0 0 1 10.9968 124.5)" class="st1 st6" style="stroke-width: 1.5px; white-space: pre;">input</text>
    </g>
    <path pointer-events="stroke" class="st8" d="M170.5,278l135-106.1" style="stroke-width: 1.5px;"/>
    <path pointer-events="all" class="st9" d="M309.6,168.7l-3.3,7.1l-0.8-3.8l-3.5-1.7L309.6,168.7z" style="stroke-width: 1.5px;"/>
    <rect x="310.5" y="145.5" pointer-events="all" class="st4" width="60" height="30" style="stroke-width: 1.5px;"/>
    <g transform="translate(-0.5 -0.5)">
      <text transform="matrix(1 0 0 1 320.9968 164.5)" class="st1 st6" style="stroke-width: 1.5px; white-space: pre;">state</text>
    </g>
    <rect x="110.5" y="105.5" pointer-events="all" class="st5" width="62" height="30" style="stroke-width: 1.5px;"/>
    <g transform="translate(-0.5 -0.5)">
      <text transform="matrix(1 0 0 1 121.9968 124.5)" class="st1 st6" style="stroke-width: 1.5px; white-space: pre;">input</text>
    </g>
    <path pointer-events="stroke" class="st10" d="M172.5,120.5h138" style="stroke-width: 1.5px;"/>
    <rect x="310.5" y="105.5" pointer-events="all" class="st5" width="60" height="30" style="stroke-width: 1.5px;"/>
    <g transform="translate(-0.5 -0.5)">
      <text transform="matrix(1 0 0 1 317.0962 124.5)" class="st1 st6" style="stroke-width: 1.5px; white-space: pre;">input'</text>
    </g>
    <path pointer-events="stroke" class="st10" d="M170.5,238l140-110" style="stroke-width: 1.5px;"/>
    <path pointer-events="stroke" class="st8" d="M60.5,120.5h43.6" style="stroke-width: 1.5px;"/>
    <path pointer-events="all" class="st9" d="M109.4,120.5l-7,3.5l1.8-3.5l-1.8-3.5L109.4,120.5z" style="stroke-width: 1.5px;"/>
    <rect x="490.5" y="80.5" pointer-events="all" class="st4" width="130" height="240" style="stroke-width: 1.5px;"/>
    <rect x="490.5" y="10.5" pointer-events="all" class="st4" width="130" height="70" style="stroke-width: 1.5px;"/>
    <rect x="517" y="30.5" pointer-events="all" class="st0" width="80" height="30" style="stroke-width: 1.5px;"/>
    <g transform="translate(-0.5 -0.5)">
      <text transform="matrix(1 0 0 1 529.3196 49.5)" class="st7 st6" style="stroke-width: 1.5px; white-space: pre;">process n</text>
    </g>
    <rect x="510.5" y="145.5" pointer-events="all" class="st4" width="60" height="30" style="stroke-width: 1.5px;"/>
    <g transform="translate(-0.5 -0.5)">
      <text transform="matrix(1 0 0 1 520.9968 164.5)" class="st1 st6" style="stroke-width: 1.5px; white-space: pre;">state</text>
    </g>
    <rect x="510.5" y="105.5" pointer-events="all" class="st5" width="60" height="30" style="stroke-width: 1.5px;"/>
    <g transform="translate(-0.5 -0.5)">
      <text transform="matrix(1 0 0 1 513.1956 124.5)" class="st1 st6" style="stroke-width: 1.5px; white-space: pre;">input''</text>
    </g>
    <path pointer-events="stroke" class="st10" d="M370.5,120.5h140" style="stroke-width: 1.5px;"/>
    <rect x="650.5" y="230" pointer-events="all" class="st5" width="60" height="30" style="stroke-width: 1.5px;"/>
    <g transform="translate(-0.5 -0.5)">
      <text transform="matrix(1 0 0 1 657.0962 248.5)" class="st1 st6" style="stroke-width: 1.5px; white-space: pre;">output</text>
    </g>
    <path pointer-events="stroke" class="st8" d="M60.5,160.5h43.6" style="stroke-width: 1.5px;"/>
    <path pointer-events="all" class="st9" d="M109.4,160.5l-7,3.5l1.8-3.5l-1.8-3.5L109.4,160.5z" style="stroke-width: 1.5px;"/>
    <rect x="0.5" y="145.5" pointer-events="all" class="st5" width="60" height="30" style="stroke-width: 1.5px;"/>
    <g transform="translate(-0.5 -0.5)">
      <text transform="matrix(1 0 0 1 10.9968 164.5)" class="st1 st6" style="stroke-width: 1.5px; white-space: pre;">state</text>
    </g>
    <rect x="172.5" y="130.5" pointer-events="all" class="st11" width="10" height="20" style="stroke-width: 1.5px;"/>
    <path pointer-events="all" class="st12" d="M172.5,130.5h10v20h-10" style="stroke-width: 1.5px;"/>
    <rect x="370.5" y="130.5" pointer-events="all" class="st11" width="10" height="20" style="stroke-width: 1.5px;"/>
    <path pointer-events="all" class="st12" d="M370.5,130.5h10v20h-10" style="stroke-width: 1.5px;"/>
    <path pointer-events="stroke" class="st8" d="M380.5,140.5h8l0,53.6" style="stroke-width: 1.5px;"/>
    <path pointer-events="all" class="st9" d="M388.5,199.4l-3.5-7l3.5,1.8l3.5-1.8L388.5,199.4z" style="stroke-width: 1.5px;"/>
    <rect x="570.5" y="130.5" pointer-events="all" class="st11" width="10" height="20" style="stroke-width: 1.5px;"/>
    <path pointer-events="all" class="st12" d="M570.5,130.5h10v20h-10" style="stroke-width: 1.5px;"/>
    <path pointer-events="stroke" class="st8" d="M580.5,140.5h8l0,53.6" style="stroke-width: 1.5px;"/>
    <path pointer-events="all" class="st9" d="M588.5,199.4l-3.5-7l3.5,1.8l3.5-1.8L588.5,199.4z" style="stroke-width: 1.5px;"/>
    <rect x="650.5" y="270.5" pointer-events="all" class="st4" width="60" height="30" style="stroke-width: 1.5px;"/>
    <g transform="translate(-0.5 -0.5)">
      <text transform="matrix(1 0 0 1 662.4971 289.5)" class="st1 st2" style="stroke-width: 1.5px; white-space: pre;">state</text>
    </g>
    <rect x="340.5" y="270.5" pointer-events="all" class="st5" width="30" height="30" style="stroke-width: 1.5px;"/>
    <g transform="translate(-0.5 -0.5)">
      <text transform="matrix(1 0 0 1 347.6987 289.5)" class="st1 st6" style="stroke-width: 1.5px; white-space: pre;">s2</text>
    </g>
    <rect x="340.5" y="230.5" pointer-events="all" class="st5" width="30" height="30" style="stroke-width: 1.5px;"/>
    <g transform="translate(-0.5 -0.5)">
      <text transform="matrix(1 0 0 1 347.6987 249.5)" class="st1 st6" style="stroke-width: 1.5px; white-space: pre;">v2</text>
    </g>
    <rect x="542" y="270.5" pointer-events="all" class="st5" width="30" height="30" style="stroke-width: 1.5px;"/>
    <g transform="translate(-0.5 -0.5)">
      <text transform="matrix(1 0 0 1 549.6987 289.5)" class="st1 st6" style="stroke-width: 1.5px; white-space: pre;">s3</text>
    </g>
    <path pointer-events="stroke" class="st8" d="M572,245.5l72.1-0.5" style="stroke-width: 1.5px;"/>
    <path pointer-events="all" class="st9" d="M649.4,245l-7,3.5l1.7-3.5l-1.8-3.5L649.4,245z" style="stroke-width: 1.5px;"/>
    <rect x="542" y="230.5" pointer-events="all" class="st5" width="30" height="30" style="stroke-width: 1.5px;"/>
    <g transform="translate(-0.5 -0.5)">
      <text transform="matrix(1 0 0 1 549.6987 249.5)" class="st1 st6" style="stroke-width: 1.5px; white-space: pre;">v3</text>
    </g>
    <path pointer-events="stroke" class="st10" d="M370.5,238l140-110" style="stroke-width: 1.5px;"/>
    <path pointer-events="stroke" class="st8" d="M370.5,278l135-106.1" style="stroke-width: 1.5px;"/>
    <path pointer-events="all" class="st9" d="M509.6,168.7l-3.3,7.1l-0.8-3.8l-3.5-1.7L509.6,168.7z" style="stroke-width: 1.5px;"/>
    <path pointer-events="stroke" class="st8" d="M572,285.5h72.1" style="stroke-width: 1.5px;"/>
    <path pointer-events="all" class="st9" d="M649.4,285.5l-7,3.5l1.8-3.5l-1.8-3.5L649.4,285.5z" style="stroke-width: 1.5px;"/>
    <rect x="110.5" y="200.5" pointer-events="all" class="st3" width="87" height="110" style="stroke-width: 1.5px;"/>
    <path pointer-events="stroke" class="st8" d="M182.5,140.5h8l0,53.6" style="stroke-width: 1.5px;"/>
    <path pointer-events="all" class="st9" d="M190.4,199.4l-3.5-7l3.5,1.8l3.5-1.8L190.4,199.4z" style="stroke-width: 1.5px;"/>
    <rect x="225.5" y="30.5" pointer-events="all" class="st0" width="55" height="30" style="stroke-width: 1.5px;"/>
    <rect x="430.5" y="30.5" pointer-events="all" class="st0" width="50" height="30" style="stroke-width: 1.5px;"/>
    <text transform="matrix(1 0 0 1 244 41.89)" style="font-size: 12px; stroke-width: 1.5px; white-space: pre;"><tspan x="0" y="0" style="font-family: Helvetica-Oblique;">bind </tspan><tspan x="0" y="14.4" style="font-family: Helvetica;">&gt;&gt;=</tspan></text>
    <path pointer-events="all" class="st3" d="M827-0.1" style="stroke-width: 1.5px;"/>
    <path pointer-events="all" class="st3" d="M277-0.1" style="stroke-width: 1.5px;"/>
    <polyline pointer-events="all" class="st0" points="482,59.9 427,59.9 427,29.9 482,29.9 &#9;" style="stroke-width: 1.5px;"/>
    <text transform="matrix(1 0 0 1 445.5 41.2493)" style="font-size: 12px; stroke-width: 1.5px; white-space: pre;"><tspan x="0" y="0" style="font-family: Helvetica-Oblique;">bind </tspan><tspan x="0" y="14.4" style="font-family: Helvetica;">&gt;&gt;=</tspan></text>
  </g>
</svg>